HIERARCHY
ROOT Hips
{
	OFFSET -14.64140 90.27770 -84.91600
	CHANNELS 6 Xposition Yposition Zposition Zrotation Xrotation Yrotation
	JOINT Spine
	{
		OFFSET 0.00000 13.20850 -1.60436
		CHANNELS 3 Zrotation Xrotation Yrotation
		JOINT Spine1
		{
			OFFSET 0.00000 8.61716 0.00000
			CHANNELS 3 Zrotation Xrotation Yrotation
			JOINT Spine2
			{
				OFFSET 0.00000 8.61717 0.00000
				CHANNELS 3 Zrotation Xrotation Yrotation
				JOINT Spine3
				{
					OFFSET 0.00000 8.61717 0.00000
					CHANNELS 3 Zrotation Xrotation Yrotation
					JOINT Neck
					{
						OFFSET 0.00000 11.07920 1.10792
						CHANNELS 3 Zrotation Xrotation Yrotation
						JOINT Neck1
						{
							OFFSET 0.00000 7.08032 0.00000
							CHANNELS 3 Zrotation Xrotation Yrotation
							JOINT Head
							{
								OFFSET 0.00000 7.08031 0.00000
								CHANNELS 3 Zrotation Xrotation Yrotation
								End site
								{
									OFFSET 0.00000 0.00000 0.00000
								}
							}
						}
					}
					JOINT RightShoulder
					{
						OFFSET -0.01000 7.91373 5.19711
						CHANNELS 3 Zrotation Xrotation Yrotation
						JOINT RightArm
						{
							OFFSET -18.41580 0.00000 0.00000
							CHANNELS 3 Zrotation Xrotation Yrotation
							JOINT RightForeArm
							{
								OFFSET -29.11090 0.00000 0.00000
								CHANNELS 3 Zrotation Xrotation Yrotation
								JOINT RightHand
								{
									OFFSET -24.65040 0.00000 0.00000
									CHANNELS 3 Zrotation Xrotation Yrotation
									JOINT RightHandThumb1
									{
										OFFSET -5.35114 -0.85590 3.97906
										CHANNELS 3 Zrotation Xrotation Yrotation
										JOINT RightHandThumb2
										{
											OFFSET -4.52789 0.00000 0.00000
											CHANNELS 3 Zrotation Xrotation Yrotation
											JOINT RightHandThumb3
											{
												OFFSET -2.46976 0.00000 0.00000
												CHANNELS 3 Zrotation Xrotation Yrotation
												End site
												{
													OFFSET 0.00000 0.00000 0.00000
												}
											}
										}
									}
									JOINT RightHandIndex1
									{
										OFFSET -14.26970 0.00000 2.88139
										CHANNELS 3 Zrotation Xrotation Yrotation
										JOINT RightHandIndex2
										{
											OFFSET -5.48836 0.00000 0.00000
											CHANNELS 3 Zrotation Xrotation Yrotation
											JOINT RightHandIndex3
											{
												OFFSET -3.01859 0.00000 0.00000
												CHANNELS 3 Zrotation Xrotation Yrotation
												End site
												{
													OFFSET 0.00000 0.00000 0.00000
												}
											}
										}
									}
									JOINT RightHandMiddle1
									{
										OFFSET -14.26970 0.00000 -0.09147
										CHANNELS 3 Zrotation Xrotation Yrotation
										JOINT RightHandMiddle2
										{
											OFFSET -6.17441 0.00000 0.00000
											CHANNELS 3 Zrotation Xrotation Yrotation
											JOINT RightHandMiddle3
											{
												OFFSET -3.56743 0.00000 0.00000
												CHANNELS 3 Zrotation Xrotation Yrotation
												End site
												{
													OFFSET 0.00000 0.00000 0.00000
												}
											}
										}
									}
									JOINT RightHandRing1
									{
										OFFSET -12.69180 0.00000 -3.06433
										CHANNELS 3 Zrotation Xrotation Yrotation
										JOINT RightHandRing2
										{
											OFFSET -5.62556 0.00000 0.00000
											CHANNELS 3 Zrotation Xrotation Yrotation
											JOINT RightHandRing3
											{
												OFFSET -3.56744 0.00000 0.00000
												CHANNELS 3 Zrotation Xrotation Yrotation
												End site
												{
													OFFSET 0.00000 0.00000 0.00000
												}
											}
										}
									}
									JOINT RightHandPinky1
									{
										OFFSET -11.11390 0.00000 -6.03719
										CHANNELS 3 Zrotation Xrotation Yrotation
										JOINT RightHandPinky2
										{
											OFFSET -4.52789 0.00000 0.00000
											CHANNELS 3 Zrotation Xrotation Yrotation
											JOINT RightHandPinky3
											{
												OFFSET -2.46976 0.00000 0.00000
												CHANNELS 3 Zrotation Xrotation Yrotation
												End site
												{
													OFFSET 0.00000 0.00000 0.00000
												}
											}
										}
									}
								}
							}
						}
					}
					JOINT LeftShoulder
					{
						OFFSET 0.01000 7.91373 5.19711
						CHANNELS 3 Zrotation Xrotation Yrotation
						JOINT LeftArm
						{
							OFFSET 18.41580 0.00000 0.00000
							CHANNELS 3 Zrotation Xrotation Yrotation
							JOINT LeftForeArm
							{
								OFFSET 29.11090 0.00000 0.00000
								CHANNELS 3 Zrotation Xrotation Yrotation
								JOINT LeftHand
								{
									OFFSET 24.65040 0.00000 0.00000
									CHANNELS 3 Zrotation Xrotation Yrotation
									JOINT LeftHandThumb1
									{
										OFFSET 5.35114 -0.85590 3.97906
										CHANNELS 3 Zrotation Xrotation Yrotation
										JOINT LeftHandThumb2
										{
											OFFSET 4.52789 0.00000 0.00000
											CHANNELS 3 Zrotation Xrotation Yrotation
											JOINT LeftHandThumb3
											{
												OFFSET 2.46977 0.00000 0.00000
												CHANNELS 3 Zrotation Xrotation Yrotation
												End site
												{
													OFFSET 0.00000 0.00000 0.00000
												}
											}
										}
									}
									JOINT LeftHandIndex1
									{
										OFFSET 14.26970 0.00000 2.88139
										CHANNELS 3 Zrotation Xrotation Yrotation
										JOINT LeftHandIndex2
										{
											OFFSET 5.48836 0.00000 0.00000
											CHANNELS 3 Zrotation Xrotation Yrotation
											JOINT LeftHandIndex3
											{
												OFFSET 3.01859 0.00000 0.00000
												CHANNELS 3 Zrotation Xrotation Yrotation
												End site
												{
													OFFSET 0.00000 0.00000 0.00000
												}
											}
										}
									}
									JOINT LeftHandMiddle1
									{
										OFFSET 14.26970 0.00000 -0.09147
										CHANNELS 3 Zrotation Xrotation Yrotation
										JOINT LeftHandMiddle2
										{
											OFFSET 6.17440 0.00000 0.00000
											CHANNELS 3 Zrotation Xrotation Yrotation
											JOINT LeftHandMiddle3
											{
												OFFSET 3.56744 0.00000 0.00000
												CHANNELS 3 Zrotation Xrotation Yrotation
												End site
												{
													OFFSET 0.00000 0.00000 0.00000
												}
											}
										}
									}
									JOINT LeftHandRing1
									{
										OFFSET 12.69180 0.00000 -3.06433
										CHANNELS 3 Zrotation Xrotation Yrotation
										JOINT LeftHandRing2
										{
											OFFSET 5.62556 0.00000 0.00000
											CHANNELS 3 Zrotation Xrotation Yrotation
											JOINT LeftHandRing3
											{
												OFFSET 3.56744 0.00000 0.00000
												CHANNELS 3 Zrotation Xrotation Yrotation
												End site
												{
													OFFSET 0.00000 0.00000 0.00000
												}
											}
										}
									}
									JOINT LeftHandPinky1
									{
										OFFSET 11.11390 0.00000 -6.03719
										CHANNELS 3 Zrotation Xrotation Yrotation
										JOINT LeftHandPinky2
										{
											OFFSET 4.52789 0.00000 0.00000
											CHANNELS 3 Zrotation Xrotation Yrotation
											JOINT LeftHandPinky3
											{
												OFFSET 2.46976 0.00000 0.00000
												CHANNELS 3 Zrotation Xrotation Yrotation
												End site
												{
													OFFSET 0.00000 0.00000 0.00000
												}
											}
										}
									}
								}
							}
						}
					}
					JOINT pCube4
					{
						OFFSET 0.00000 10.91090 1.10792
						CHANNELS 3 Zrotation Xrotation Yrotation
						End site
						{
							OFFSET 0.00000 0.00000 0.00000
						}
					}
				}
			}
		}
	}
	JOINT RightUpLeg
	{
		OFFSET -9.98441 0.00000 0.00000
		CHANNELS 3 Zrotation Xrotation Yrotation
		JOINT RightLeg
		{
			OFFSET 0.00000 -42.11790 0.00000
			CHANNELS 3 Zrotation Xrotation Yrotation
			JOINT RightFoot
			{
				OFFSET 0.00000 -45.00020 -0.00001
				CHANNELS 3 Zrotation Xrotation Yrotation
				JOINT RightForeFoot
				{
					OFFSET 0.00000 -3.74820 0.00000
					CHANNELS 3 Zrotation Xrotation Yrotation
					JOINT RightToeBase
					{
						OFFSET 0.00000 0.06325 14.43120
						CHANNELS 3 Zrotation Xrotation Yrotation
						End site
						{
							OFFSET 0.00000 0.00000 0.00000
						}
					}
				}
			}
		}
	}
	JOINT LeftUpLeg
	{
		OFFSET 9.98441 0.00000 0.00000
		CHANNELS 3 Zrotation Xrotation Yrotation
		JOINT LeftLeg
		{
			OFFSET 0.00000 -42.11800 0.00000
			CHANNELS 3 Zrotation Xrotation Yrotation
			JOINT LeftFoot
			{
				OFFSET 0.00000 -45.00070 0.00000
				CHANNELS 3 Zrotation Xrotation Yrotation
				JOINT LeftForeFoot
				{
					OFFSET 0.00000 -3.74824 0.00000
					CHANNELS 3 Zrotation Xrotation Yrotation
					JOINT LeftToeBase
					{
						OFFSET 0.00000 0.06325 14.43110
						CHANNELS 3 Zrotation Xrotation Yrotation
						End site
						{
							OFFSET 0.00000 0.00000 0.00000
						}
					}
				}
			}
		}
	}
}
MOTION
Frames: 4
Frame Time: 0.050000
-0.036166201051531024 0.004820562738105501 0.005379468548708017 0.01952210211280067 0.009884781566520937 -0.00519802937438914 -3.522316175237166 4.016954528922631 -0.796511425714442 -0.8333065532290361 4.454036546098808 0.3105651394087573 -0.7655373990222482 -0.21125746313467905 -1.5492555917243112 1.4470604700524794 0.4857211754851204 -0.9033814543135431 -0.979263174190556 13.387811696105286 -1.1430743412387248 -0.2406387424843413 -0.9665331337155793 -3.3191279406376317 0.15866031241192283 -15.582295134348268 -0.2167633512990736 3.4405121041801525 -0.929156311320308 -14.768379630512609 61.85319809609673 14.956367287641802 14.194281496677332 34.63787370929587 4.641511900046477 80.21859978026579 21.038691609840473 0.0686374481887033 -7.597641138089456 4.507983342434026 -0.1397762283440408 -1.5588447086043327 0.01967105338140881 -0.031371465086612524 -56.21952761866352 0.014216836160519839 0.026308148000107293 -56.22648411918118 -38.752332694126196 0.015195902988300685 0.013902480995697896 -0.036348552643130715 -0.005159780267945434 0.0201287363971655 -0.0013307027451358545 0.010798668163084751 0.014015538396228764 -36.73650786667751 0.003976160928071 -0.02015951127463903 0.011862499595572217 -0.03690716156458913 0.005689744629990734 0.017792966042688107 0.019054946197834804 0.018226658880307955 -19.79110913172826 -0.0006686603667766926 0.017321522200523787 0.01602486001759489 0.0339238061689043 -0.047113987125125927 -0.03539363302447807 -0.003489252980170931 0.0008058193815988387 24.096432970314336 0.0009894439972472815 0.011300987314562326 28.845566917155377 -0.003064444060935129 -0.04301968470417145 28.850722373109136 -0.011255115377402137 -0.01373417298405426 1.9975635924498567 0.7238405473016267 13.350163750710639 -53.75874141651096 20.565882628940553 -39.5154711951962 9.395398346114574 -0.4325418015023092 -83.7675311125895 -18.438626751416123 10.531110889585923 -7.9575022823489086 -0.4944577350806441 0.08218534500457286 -8.134474574721484 -0.01400853301495114 -0.030178034725970332 44.536161506031355 -0.019229380533705914 -0.030021484212273828 44.542936842850835 12.419595018034185 -0.022957921828665462 -0.036359018193411835 -0.036369460827731244 -0.0388868676703928 -0.04154406584217349 -0.016253300227723935 0.025851459069201624 -0.009683862283929116 11.150483394349399 0.007895896501464874 -0.005796139753655735 -0.04334989933017502 -0.008527795713739801 0.0007116605674075136 0.002704269671212099 0.02905450578871486 -0.04434875851371586 4.797733768656076 -0.04490846905545787 0.03229368327860994 0.005785291393327642 0.037230586504934916 -0.013657484900817012 -0.017125302827689013 -0.03399131228792749 0.004967243122264035 -5.591913709862873 -0.02645936348276655 -0.02125819229095118 -6.695542623954811 0.02803551603894221 -0.02818076940441311 -6.7432406677503405 0.025350909528765942 0.014602595207834123 -0.02266429095865305 0.04913895344644816 -0.011794549545096395 8.054866033543462 3.4905660209601654 -19.231710924905972 -0.04773110910540297 10.401786499590559 0.05998119193582263 -5.636826192596632 -15.652927730136396 3.1790259763814435 -0.015152672365202808 -0.012193008553360396 -0.025925217591069836 -0.030421262761666117 4.721271386963861 0.047236380368354196 12.494635484709061 -8.24071464631488 6.862743576684723 -0.030548042258296108 46.341828363945936 -0.027824645228518022 -4.281448633151982 -14.725704906247056 -3.80293775647885 0.03747491858680383 0.0393661625821678 -0.03851671292085632 -0.04872035876207158 -10.748617997303981 -0.00374117877974064 
0.012326706029515543 -0.026173531457066263 0.03670485895527393 -0.0468727282628243 0.015563934285825849 0.04630480681418922 -3.4786229559991715 3.982493326093615 -0.8594274610051378 -0.751267335428054 4.515494292524151 0.3809891301731384 -0.781228574198475 -0.2518278723802725 -1.5372547214029242 1.399200962508283 0.33937851702302513 -0.90409337076382 -0.9886658624694967 13.34637858109896 -1.2283787050990636 -0.1811543784597271 -1.069251237572095 -3.5246113881861745 0.22224031395040683 -15.693519942475843 -0.28725565771926453 3.487594395656456 -0.9122844199154115 -14.739940920747532 61.37617649480799 14.88647636817101 14.147773863730842 32.470290411876526 4.881180871218717 79.5452339645785 22.228677776353333 0.08302891308190297 -7.703116469864251 4.505094505807573 -0.12929223972395973 -1.632303042156557 -0.038894108971426485 -0.020969446826705974 -56.18680918105034 0.04185820347640226 -0.03704036191399038 -56.24427009822469 -38.77266192835225 0.04976476519005369 0.022540082098702313 -0.010672282594317545 -0.005337725880855986 -0.021891596806076555 -0.001354726945434623 0.005743960190214092 0.03763615089079433 -36.72211994545852 -0.02514598664001852 0.04857489110290447 0.031111109726170875 -0.04718055632062285 0.025091482489283057 -0.01365598423403745 0.016877808399124825 -0.02041661916465211 -19.762426886134804 -0.017281819150978137 0.03589900180640207 -0.02774525765538121 0.011483594099067705 -0.004944403788378273 -0.004539398879345216 0.01386067832997871 -0.045954135587826454 24.048551311837706 -0.03444502491682904 -0.013957636624283815 28.906475640755552 0.027109028147199038 0.029804525546689994 28.877225016780155 0.013009214436119606 -0.04839325785511527 2.1218020255314216 0.6955385760475798 13.498188417177307 -53.375897713788454 18.356159073152995 -40.01964242240489 11.197056268612622 -1.4759156189405302 -83.46731786491591 -19.363744635222602 11.107529705588373 -8.536350676572463 -0.48287527557754206 0.05502805705851948 -8.101477503376223 -0.02974914579394768 0.002641998740212204 44.54557149328293 -0.00694713544712877 0.007976862220610562 44.54474697142853 12.506858828264825 0.03222417463193426 -0.015192268910111401 0.04263467194854215 -0.049952400496862344 -0.030999717846496203 -0.03685995493928156 -0.04464786424600884 -0.024267853425537562 11.138085308836269 3.3399738912590365e-05 0.03210484646417468 0.006824432870616867 0.048540343327007615 0.008243276453533548 0.0035291741772236433 0.048901821236443134 -0.042833249062511174 4.754357408653148 0.022286177986681067 0.018922249760975337 -0.038926469397205135 -0.005970473499445168 0.0025038133802925155 0.02392264226658063 0.021520646791354747 0.03350901975199744 -5.599841218324346 0.015518545239482841 -0.03522884358391439 -6.676424874329132 0.013579337689686593 -0.019707096456665896 -6.732334151259979 0.014046386026654594 -0.023326490920080226 -0.023879382038615254 0.0061161930379021005 -0.047249895854309776 8.04795013844503 3.5204136864492765 -19.173130336274028 -0.0061573451007911175 10.39012631305707 0.010123478718456999 -5.6565748831241 -15.706867089933855 3.181487610193911 0.008430697720216393 -0.002866421877311171 -0.03731288636049817 -0.049178199046815134 4.685612688312491 0.018327316039545828 12.440549943001113 -8.254948715948249 6.908117120912399 -0.011393775029717184 46.38776431212087 -0.0023704533909252156 -4.298353279117103 -14.752010125285967 -3.80078179051006 -0.02880235577863564 0.03216200562057412 0.03026543853965331 0.005827978217884087 -10.76072639001781 -0.02998356379079812 
0.02577070763690353 0.04380714180319037 -0.048468492276841836 -0.021219941803423962 -0.032436144444642566 -0.020940403648079715 -3.3144448098143307 3.9194145756422833 -0.8299150078901544 -0.6811944893782368 4.490276029438764 0.3729337462978147 -0.7409019049112366 -0.2809351643840925 -1.5152824250661197 1.38358396253763 0.28926269496573315 -0.8904007688077712 -1.0173738991483512 13.33048128231121 -1.1944004715703558 -0.18607677875421044 -1.0899632559999908 -3.487894227466552 0.2008930942972925 -15.744299507917917 -0.2777061975907295 3.5234479197328468 -0.9056435038928683 -14.68531641794713 61.0049524184621 14.795222030905045 14.036998403867024 30.787249615535824 5.763997249316577 79.14548769985025 23.283512365035133 0.09282942501792485 -7.731533678912334 4.496223547960167 -0.13162554433007684 -1.5669111348830658 -0.023255585597232807 0.04594110443471161 -56.25018019485584 0.0159809873074135 0.0015796739814534417 -56.211764231205066 -38.762020751331676 0.03483533233048109 0.04726982034245733 0.008372251638205557 0.01385739536601862 0.03545316229544698 0.030880602210783484 8.291490097389582e-05 -0.007446710191988355 -36.70647911155167 0.0024759218122784622 0.044298127019873554 0.01887903565439039 -0.008678024558606171 0.004596675286742844 0.03733525625805802 0.02080783110872907 -0.02239221540900931 -19.759098801332385 -0.030176770513653875 -0.02997106974866771 -0.03634858696038527 0.014563987932363692 0.01966933214737842 -0.049211078329929145 -0.020224657703085742 0.01181709215702606 24.029768902289227 -0.003070158687173935 -0.0019569560840447925 28.82712857290501 -0.030302894848664167 -0.026447565605012668 28.897427541516787 0.012481080418195198 0.042019914884409724 2.354704308464758 0.7602614862900342 13.506046336482111 -53.15065415352622 16.400046910498492 -40.89538334025241 12.551979694732083 -2.1047407283597757 -83.25262490483277 -20.367069356542142 11.806836020354194 -9.230681344749598 -0.510308920771423 0.11261478086263008 -8.161339058567345 -0.01770652917908648 0.03294826220478252 44.59613072784195 -0.03898893581705358 0.03239985110327109 44.532981484351545 12.432743469749942 0.03953716862356876 0.04245487740384975 0.04058150722597106 -0.005975884979624168 0.04805900688777581 0.025843975173513396 -0.04654164973379454 0.03269747453174733 11.092925485756542 -0.0063303718746318205 -0.031991244180003854 -0.002016210486173475 -0.023513228478275586 -0.018247195365277483 -0.030259206560540614 -0.046099810161898576 0.030654218995074867 4.815970204773108 0.0318455989783 0.005361331064733012 -0.00929960875029338 0.02353900777193354 0.013680116256492708 -0.03781914817795463 -0.01305154005962699 -0.011456948858057786 -5.6050846589522365 -0.01663787336525846 -0.01416048920268098 -6.716025018480958 -0.013247652809547516 -0.00880565003457387 -6.68349932175976 -0.0016706205614239159 -0.005508801926678289 -0.024733818338322795 -0.03132547889205418 0.0411065974465107 8.050153729341835 3.5019952319740546 -19.216253826916294 0.022294196631665028 10.378923020241649 0.012470350451589247 -5.632763524726036 -15.6255868575388 3.1822582477015966 -0.04658026949338731 -0.011741411313975152 -0.0197033267165013 0.0327828384139271 4.722746875798442 0.018839784360054988 12.48552555342193 -8.198206086288968 6.872024175876124 0.033724652840201305 46.37423684488986 -0.014912309591158392 -4.335796504966602 -14.773665440864692 -3.8586219880871733 0.02906101671590122 -0.009824965680482235 -0.0228327162782562 -0.029527760039890688 -10.741002625761784 0.04255221643806883 
-0.003994237323883242 0.044906966940747195 -0.039914828289552146 -0.031214934586290627 -0.0430312136151668 -0.036229325029101665 -3.234412869073694 3.889553362631181 -0.8415889554555206 -0.6949251708890735 4.512083303366741 0.283275011744396 -0.6608906891707309 -0.41389129173703937 -1.529760396843584 1.3046172756847731 0.20614325034557562 -0.920024674266082 -1.0519272555619674 13.39044382524788 -1.1921760975032905 -0.24929067531458854 -1.1821864940806326 -3.3459296057958174 0.10575784538920735 -15.919581575338375 -0.2145198616018084 3.6224016948748843 -0.9502584039366447 -14.671359237093004 60.5676131859175 14.708895355848945 13.940348688645988 29.18035949627687 7.053689257786703 78.81651474219653 24.296605364448702 0.09935149065228618 -7.596662139479611 4.5326101467163 -0.10465310526842211 -1.5986380770805706 0.01648839568139766 -0.020536012254088395 -56.2243934952235 -0.044229963702262044 -0.031088004870620863 -56.22683711113344 -38.766124356133794 0.00113524798034176 0.041577637164776346 -0.04034574712360673 -0.022144303598105253 0.013998350878270702 -0.02106844628155698 0.001420842334277525 -0.002604810282808262 -36.66499450626991 0.03208636666547212 0.042902439465837536 0.029224855213789553 -0.01129860592266841 -0.0069125316083112 0.024882525225752274 0.04598109515668112 0.01078334389025511 -19.742803891502344 -0.03816450121770806 -0.004740577395348251 -0.04541913694109241 0.00967119597834355 -0.026573285078400108 0.022068104702936 -0.031335860626809896 0.013346276702205978 24.101121093690587 -0.021521330995931422 0.02250785601885726 28.870658036822448 -0.011587154672086908 0.0171424152547584 28.84928218623905 -0.02749171164442636 -0.0020185378042971635 2.582713818835347 0.8176762272219676 13.546716983336138 -53.07835034478534 14.493133052070531 -41.750884350001556 13.620295974245629 -2.4939191808693684 -83.12247714826721 -21.315702680090236 12.563338148262412 -10.038255519450031 -0.44636105195313336 0.03634766295135413 -8.081410507846659 0.013047196466803152 0.025735111894044347 44.56098778005847 -0.030838877890187185 0.004576658027310774 44.527377966673576 12.445872291626046 -0.031244611010297928 0.04965326573419229 0.039046853594052494 -0.014298169562332475 -0.008046835297096076 -0.0017741319753583574 -0.006727792489077153 -0.020317775170057013 11.087825729372788 -0.028490345707995395 0.018160932411910143 0.010496712057700378 0.014889268510431364 -0.010196716887815977 -0.03475332029954647 0.036549299544279074 -0.021410215226376084 4.776047980023102 -0.017791279988224915 -0.027994066735000125 -0.013194293285406966 0.004366162282693039 -0.006297943013331349 -0.03764737398189263 0.011923142101594498 -0.005729102933359515 -5.590004350090468 -0.03666950269174917 -0.016954975489561742 -6.7296045510719456 -0.007939012363146855 0.012944993220909974 -6.684136517845105 0.01808255122460331 0.002460021542794623 -0.01758180731148655 -0.001375799211099949 0.020002081796964555 8.07873732252734 3.5256036398651323 -19.215548188177312 0.032315135568357245 10.370900913634713 -0.03262104325564773 -5.636892921773099 -15.625665321359408 3.236549681388 -0.004591494168816887 -0.03287896137624558 -0.0033542805621018554 0.042304868769083764 4.732635434747556 -0.009243449959985845 12.45194373686116 -8.237854056064597 6.905540313916331 -0.030776226723119318 46.343171377661555 -0.002515898254073316 -4.313266142072666 -14.763010970894602 -3.810586478274899 0.03363964226520966 0.048083191876513026 -0.027916176409613306 -0.04824232600347187 -10.700547150407404 -0.026351403218907228 
